<?xml version="1.0" encoding="UTF-8"?>
<svg version="1.1" xmlns="http://www.w3.org/2000/svg" width="64" height="64">
<path d="M0 0 C4.24744412 0.50047404 7.74972818 1.66062789 11.65869141 3.375 C18.65077506 6.39059902 23.3282858 7.80590579 30.75 5.01171875 C31.4925 4.67785156 32.235 4.34398437 33 4 C38.20760526 2.02111 42.4941841 1.77976736 48 2 C47.51206891 6.51336259 47.51206891 6.51336259 45.43676758 8.4855957 C42.21888536 10.48544776 38.82555822 11.69495042 35.26171875 12.91796875 C34.50389603 13.18007645 33.7460733 13.44218414 32.96528625 13.7122345 C31.35875024 14.26346244 29.75072961 14.81037982 28.14135742 15.35327148 C25.72615795 16.1743576 23.32364287 17.02685705 20.91992188 17.88085938 C11.32567868 21.18996573 2.21416178 23.63199055 -8 22 C-11.56518509 20.20418694 -14.01880072 18.52213205 -16 15 C-15.67 14.01 -15.34 13.02 -15 12 C-11.87678626 12.45929614 -9.99391331 13.00396343 -7.3125 14.75 C-2.22324035 16.67047534 0.97156083 14.83470078 6 13 C3.36 9.7 0.72 6.4 -2 3 C-1.34 2.01 -0.68 1.02 0 0 Z " fill="#FF1F17" transform="translate(16,21)"/>
</svg>
